<svg width="12" height="12" viewBox="0 0 12 12" fill="none" xmlns="http://www.w3.org/2000/svg">
<path d="M11.71 6.71L6.71 11.71C6.6149 11.801 6.50275 11.8724 6.38 11.92C6.13654 12.02 5.86346 12.02 5.62 11.92C5.49725 11.8724 5.38511 11.801 5.29 11.71L0.290002 6.71C0.196764 6.61676 0.122803 6.50607 0.0723429 6.38425C0.0218825 6.26242 -0.00408936 6.13186 -0.00408936 6C-0.00408936 5.7337 0.101699 5.4783 0.290002 5.29C0.478306 5.10169 0.733701 4.99591 1 4.99591C1.2663 4.99591 1.5217 5.10169 1.71 5.29L5 8.59V0.999997C5 0.73478 5.10536 0.480426 5.2929 0.29289C5.48043 0.105353 5.73479 -2.86102e-06 6 -2.86102e-06C6.26522 -2.86102e-06 6.51957 0.105353 6.70711 0.29289C6.89465 0.480426 7 0.73478 7 0.999997V8.59L10.29 5.29C10.383 5.19627 10.4936 5.12187 10.6154 5.07111C10.7373 5.02034 10.868 4.9942 11 4.9942C11.132 4.9942 11.2627 5.02034 11.3846 5.07111C11.5064 5.12187 11.617 5.19627 11.71 5.29C11.8037 5.38296 11.8781 5.49356 11.9289 5.61542C11.9797 5.73728 12.0058 5.86798 12.0058 6C12.0058 6.13201 11.9797 6.26271 11.9289 6.38457C11.8781 6.50643 11.8037 6.61703 11.71 6.71Z" fill="#FF7070"/>
</svg>
