<svg width="12" height="12" viewBox="0 0 12 12" fill="none" xmlns="http://www.w3.org/2000/svg">
<path d="M11.71 6.71C11.617 6.80373 11.5064 6.87812 11.3846 6.92889C11.2627 6.97966 11.132 7.0058 11 7.0058C10.868 7.0058 10.7373 6.97966 10.6154 6.92889C10.4936 6.87812 10.383 6.80373 10.29 6.71L7 3.41V11C7 11.2652 6.89464 11.5196 6.70711 11.7071C6.51957 11.8946 6.26521 12 6 12C5.73478 12 5.48043 11.8946 5.29289 11.7071C5.10536 11.5196 5 11.2652 5 11V3.41L1.71 6.71C1.52169 6.8983 1.2663 7.00409 0.999999 7.00409C0.733697 7.00409 0.478302 6.8983 0.289999 6.71C0.101695 6.5217 -0.00409317 6.2663 -0.00409317 6C-0.00409317 5.7337 0.101695 5.4783 0.289999 5.29L5.29 0.290001C5.3851 0.19896 5.49725 0.127594 5.62 0.0799999C5.7397 0.0270948 5.86913 -0.000232697 6 -0.000232697C6.13087 -0.000232697 6.2603 0.0270948 6.38 0.0799999C6.50275 0.127594 6.61489 0.19896 6.71 0.290001L11.71 5.29C11.8037 5.38296 11.8781 5.49356 11.9289 5.61542C11.9797 5.73728 12.0058 5.86799 12.0058 6C12.0058 6.13201 11.9797 6.26272 11.9289 6.38458C11.8781 6.50644 11.8037 6.61704 11.71 6.71Z" fill="#5ECCA3"/>
</svg>
