<svg width="16" height="20" viewBox="0 0 16 20" fill="none" xmlns="http://www.w3.org/2000/svg">
<path d="M5.05648 6.99544L5.0546 6.99696L5.05282 6.9987L5.05648 6.99544ZM13.3516 6.84C13.2936 6.78412 13.2293 6.73523 13.1599 6.69432C13.0617 6.63654 12.9527 6.59951 12.8397 6.58552C12.7266 6.57153 12.6119 6.58088 12.5026 6.613C12.3933 6.64511 12.2917 6.6993 12.2042 6.77222C12.1167 6.84514 12.0451 6.93523 11.9937 7.03694C11.7067 7.60251 11.3108 8.10584 10.8287 8.51805C10.9024 8.10272 10.9396 7.68173 10.9398 7.25991C10.9414 5.97666 10.6028 4.71592 9.95869 3.60605C9.31455 2.49618 8.38781 1.57682 7.27282 0.94158C7.14999 0.871952 7.01149 0.834671 6.87031 0.833234C6.72913 0.831797 6.58989 0.866252 6.46567 0.933364C6.34145 1.00048 6.23632 1.09805 6.16014 1.21692C6.08396 1.3358 6.03923 1.47207 6.03015 1.61297C5.98351 2.40312 5.77695 3.17557 5.42297 3.88353C5.06899 4.59148 4.57497 5.22021 3.97084 5.7316L3.77878 5.88785C3.14704 6.31293 2.58786 6.83694 2.1227 7.43977C1.39962 8.35069 0.898732 9.41755 0.659742 10.5558C0.420751 11.694 0.450236 12.8722 0.745857 13.997C1.04148 15.1218 1.59511 16.1623 2.36283 17.0359C3.13056 17.9095 4.09128 18.5922 5.16879 19.0299C5.2953 19.0816 5.43259 19.1014 5.56855 19.0875C5.70451 19.0736 5.83496 19.0264 5.9484 18.9502C6.06183 18.874 6.15475 18.771 6.21898 18.6504C6.2832 18.5297 6.31675 18.3951 6.31667 18.2585C6.31607 18.1701 6.30208 18.0823 6.27517 17.998C6.08873 17.2972 6.03504 16.5677 6.11688 15.8472C6.90541 17.3344 8.17116 18.5133 9.71063 19.1943C9.89854 19.2784 10.111 19.2897 10.3067 19.2261C11.523 18.8335 12.6188 18.1364 13.4898 17.2011C14.3608 16.2658 14.9782 15.1233 15.2833 13.8822C15.5884 12.641 15.5711 11.3425 15.233 10.1099C14.8949 8.87738 14.2472 7.75175 13.3516 6.84ZM10.0976 17.5325C9.37117 17.1644 8.73039 16.6475 8.21687 16.0154C7.70336 15.3834 7.32862 14.6503 7.11703 13.8639C7.05241 13.5991 7.00242 13.331 6.96729 13.0607C6.94348 12.8886 6.86649 12.7282 6.74706 12.602C6.62763 12.4758 6.47174 12.39 6.30119 12.3568C6.24865 12.3464 6.19522 12.3412 6.14167 12.3413C5.9952 12.3413 5.85132 12.3798 5.72451 12.4531C5.59771 12.5264 5.49247 12.6319 5.41942 12.7588C4.72798 13.9514 4.38025 15.3122 4.41478 16.6903C3.80664 16.2175 3.2984 15.6286 2.91951 14.9579C2.54061 14.2872 2.2986 13.548 2.2075 12.7831C2.1164 12.0182 2.17802 11.2428 2.3888 10.5019C2.59957 9.76096 2.9553 9.06924 3.43537 8.46681C3.79988 7.99334 4.23961 7.58289 4.73704 7.25181C4.75857 7.23791 4.77923 7.22269 4.79889 7.20624C4.79889 7.20624 5.04613 7.00167 5.05458 6.99699C6.24183 5.99279 7.08625 4.64325 7.47019 3.13641C8.37817 3.97577 8.9836 5.09144 9.19249 6.31017C9.40138 7.5289 9.20202 8.78251 8.62539 9.87632C8.5492 10.0223 8.51795 10.1875 8.53557 10.3512C8.55319 10.5149 8.6189 10.6697 8.72441 10.7961C8.82991 10.9225 8.97048 11.0149 9.1284 11.0615C9.28631 11.1081 9.45449 11.1069 9.61171 11.058C10.8882 10.6578 12.0115 9.87625 12.8303 8.8184C13.3224 9.54531 13.6442 10.3739 13.7716 11.2425C13.8989 12.111 13.8287 12.9971 13.566 13.8347C13.3033 14.6723 12.855 15.4398 12.2545 16.0801C11.6539 16.7204 10.9166 17.2169 10.0976 17.5326L10.0976 17.5325Z" fill="#787878"/>
</svg>
