<svg width="20" height="20" viewBox="0 0 20 20" fill="none" xmlns="http://www.w3.org/2000/svg">
<path d="M18.0917 6.07499C18.0142 5.99688 17.922 5.93489 17.8205 5.89258C17.7189 5.85027 17.61 5.82849 17.5 5.82849C17.39 5.82849 17.2811 5.85027 17.1795 5.89258C17.078 5.93489 16.9858 5.99688 16.9083 6.07499L11.6667 11.325L8.09167 7.74166C8.0142 7.66355 7.92203 7.60155 7.82048 7.55925C7.71893 7.51694 7.61001 7.49516 7.5 7.49516C7.38999 7.49516 7.28107 7.51694 7.17952 7.55925C7.07797 7.60155 6.9858 7.66355 6.90833 7.74166L1.90833 12.7417C1.83023 12.8191 1.76823 12.9113 1.72592 13.0128C1.68362 13.1144 1.66183 13.2233 1.66183 13.3333C1.66183 13.4433 1.68362 13.5523 1.72592 13.6538C1.76823 13.7554 1.83023 13.8475 1.90833 13.925C1.9858 14.0031 2.07797 14.0651 2.17952 14.1074C2.28107 14.1497 2.38999 14.1715 2.5 14.1715C2.61001 14.1715 2.71893 14.1497 2.82048 14.1074C2.92203 14.0651 3.0142 14.0031 3.09167 13.925L7.5 9.50832L11.075 13.0917C11.1525 13.1698 11.2446 13.2318 11.3462 13.2741C11.4477 13.3164 11.5567 13.3382 11.6667 13.3382C11.7767 13.3382 11.8856 13.3164 11.9871 13.2741C12.0887 13.2318 12.1809 13.1698 12.2583 13.0917L18.0917 7.25832C18.1698 7.18085 18.2318 7.08869 18.2741 6.98714C18.3164 6.88559 18.3382 6.77667 18.3382 6.66666C18.3382 6.55665 18.3164 6.44773 18.2741 6.34618C18.2318 6.24463 18.1698 6.15246 18.0917 6.07499Z" fill="#787878"/>
</svg>
